<mxfile host="app.diagrams.net" modified="2024-03-11T09:37:10.174Z" agent="Mozilla/5.0 (Macintosh; Intel Mac OS X 10_15_7) AppleWebKit/537.36 (KHTML, like Gecko) Chrome/122.0.0.0 Safari/537.36" version="23.1.0" etag="L9N_fh8ImrBdaWuAUhN9" type="github">
  <diagram name="第 1 页" id="z16gZJFUEnO8tLLCJxo7">
    <mxGraphModel>
      <root>
        <mxCell id="0" />
        <mxCell id="1" parent="0" />
      </root>
    </mxGraphModel>
  </diagram>
</mxfile>
